<svg width="202" height="168" viewBox="0 0 202 168" fill="none" xmlns="http://www.w3.org/2000/svg">
<path d="M201.625 99.2099L198.981 101.847C185.601 88.5037 168.082 81.8469 150.553 81.8469C133.023 81.8469 115.514 88.5136 102.135 101.847C93.3303 110.617 88.953 122.094 88.9431 133.6C88.953 145.096 93.3402 156.583 102.135 165.363L99.5002 168C90.696 159.22 79.1882 154.844 67.6506 154.844C56.1131 154.844 44.5953 159.22 35.8011 168L33.1568 165.363C41.961 156.583 46.3483 145.106 46.3483 133.6C46.3483 122.094 41.961 110.617 33.1667 101.847C28.9479 97.6395 23.4316 95.5457 17.9055 95.5457C12.3793 95.5457 6.8532 97.6395 2.64423 101.847L0 99.2099C4.21888 95.0025 6.31841 89.5013 6.31841 83.9901C6.31841 78.479 4.21888 72.9778 0 68.7803L2.64423 66.1432C6.86311 70.3506 12.3793 72.4445 17.9055 72.4445C23.4316 72.4445 28.9479 70.3506 33.1568 66.1432L35.8011 68.7803C31.5822 72.9778 29.4826 78.4692 29.4826 83.9901C29.4826 89.5111 31.5822 95.0025 35.8011 99.2099C44.5953 107.99 56.1131 112.365 67.6506 112.365C79.1882 112.365 90.6861 107.99 99.4903 99.2198C112.87 85.8667 119.545 68.3951 119.545 50.9136C119.545 33.4321 112.87 15.9704 99.5002 2.63704L102.135 0C115.524 13.3432 133.033 20 150.553 20C168.072 20 185.591 13.3333 198.971 0L200.288 1.31358L201.595 2.62716C188.235 15.9605 181.551 33.4222 181.551 50.9037C181.551 68.3852 188.235 85.8667 201.615 99.2L201.625 99.2099Z" fill="#D4792F"/>
</svg>
